<?xml version="1.0" standalone="no"?>
<!DOCTYPE svg PUBLIC "-//W3C//DTD SVG 20010904//EN"
 "http://www.w3.org/TR/2001/REC-SVG-20010904/DTD/svg10.dtd">
<svg version="1.0" xmlns="http://www.w3.org/2000/svg"
 width="1279.000000pt" height="876.000000pt" viewBox="0 0 1279.000000 876.000000"
 preserveAspectRatio="xMidYMid meet">

<g transform="translate(0.000000,876.000000) scale(0.100000,-0.100000)"
fill="#000000" stroke="none">
<path d="M6565 8710 c-44 -5 -177 -11 -295 -15 -118 -3 -278 -13 -355 -21 -97
-10 -229 -13 -430 -12 l-290 3 -64 -27 c-36 -16 -73 -28 -83 -28 -11 0 -38 -8
-61 -19 -23 -10 -85 -35 -137 -56 -104 -40 -130 -62 -175 -149 -26 -48 -71
-205 -115 -396 -11 -47 -27 -110 -35 -140 -9 -30 -20 -80 -24 -110 -5 -30 -16
-84 -24 -120 -8 -36 -18 -94 -21 -129 -4 -36 -23 -110 -41 -164 -32 -94 -58
-137 -97 -158 -28 -15 -156 -39 -215 -40 -109 -3 -374 -111 -521 -213 -40 -28
-92 -62 -115 -75 -112 -63 -191 -101 -208 -101 -37 0 -154 -42 -255 -91 -56
-27 -108 -49 -116 -49 -8 0 -18 -4 -23 -8 -17 -15 -117 -53 -190 -73 -38 -11
-83 -24 -100 -29 -16 -5 -78 -23 -137 -38 -59 -16 -113 -34 -120 -39 -7 -6
-39 -16 -72 -23 -32 -7 -86 -21 -119 -32 -34 -11 -97 -26 -142 -33 -120 -20
-202 -45 -229 -70 -30 -28 -39 -87 -27 -189 5 -44 6 -103 3 -130 -3 -28 -6
-88 -7 -134 l0 -82 57 -53 c31 -29 60 -65 65 -82 12 -44 9 -217 -5 -315 -15
-104 -7 -406 15 -530 8 -47 18 -107 23 -135 4 -27 6 -80 3 -117 -3 -36 0 -95
6 -130 6 -34 13 -157 15 -273 2 -115 9 -230 14 -255 6 -25 16 -99 22 -165 6
-66 16 -169 24 -230 7 -60 14 -173 15 -250 2 -140 2 -140 -39 -263 -23 -67
-55 -155 -73 -195 -30 -70 -31 -76 -30 -207 0 -79 6 -147 13 -165 7 -16 14
-78 17 -137 5 -97 4 -110 -18 -154 -12 -27 -47 -72 -76 -102 -58 -59 -98 -135
-116 -217 -11 -53 -2 -193 23 -375 5 -36 16 -162 26 -280 18 -237 11 -359 -28
-450 -11 -25 -35 -115 -55 -200 -19 -85 -38 -168 -42 -185 -4 -19 -9 -26 -14
-18 -6 10 -185 13 -787 13 l-780 0 0 -125 0 -125 6395 0 6395 0 0 125 0 125
-1046 0 -1045 0 6 -23 c7 -27 -42 74 -61 126 -10 27 -14 94 -15 230 -1 193 5
239 41 352 10 33 22 80 26 105 8 53 62 207 75 216 11 6 12 129 2 200 -5 37
-22 71 -71 144 -130 190 -165 303 -167 555 -1 88 -7 189 -14 225 -26 142 -55
256 -71 285 -17 28 -29 59 -109 277 l-32 88 5 152 c4 84 6 165 6 180 0 14 4
38 10 53 6 15 15 55 20 89 13 91 40 209 49 221 5 5 11 28 14 50 3 22 10 74 16
116 5 42 17 105 26 140 10 37 15 81 12 104 -5 36 -2 84 18 309 3 32 9 66 14
75 5 9 11 44 14 79 3 36 13 74 24 90 15 23 18 48 18 182 l0 155 38 83 39 84
-6 103 c-3 57 -10 142 -16 188 -12 86 -7 143 23 277 8 36 18 89 21 119 4 30 9
65 12 76 13 52 -53 140 -145 192 -25 14 -94 57 -152 95 -120 78 -235 129 -329
147 -36 7 -108 26 -161 42 -53 16 -102 29 -108 29 -12 0 -94 34 -121 50 -34
20 -183 90 -192 90 -20 0 -145 54 -183 80 -22 14 -67 44 -100 66 -33 21 -64
44 -70 51 -12 15 -206 133 -218 133 -5 0 -21 8 -35 19 -15 10 -70 37 -122 61
-52 23 -111 49 -130 58 -19 9 -80 30 -134 47 -74 22 -104 37 -118 56 -25 34
-38 120 -47 319 -9 180 -33 376 -57 455 -21 72 -46 146 -57 175 -6 14 -11 27
-11 30 -1 8 -56 141 -69 169 -6 12 -30 42 -52 66 -30 32 -50 45 -80 49 -48 8
-108 27 -318 100 -88 31 -176 56 -197 56 -21 0 -41 4 -44 9 -3 4 -27 11 -53
14 -249 30 -361 53 -400 83 -30 23 -38 24 -175 22 -79 0 -179 -4 -223 -8z
m-192 -1677 c-18 -2 -48 -2 -65 0 -18 2 -4 4 32 4 36 0 50 -2 33 -4z m2 -53
c4 -6 -7 -10 -24 -10 -17 0 -31 5 -31 10 0 6 11 10 24 10 14 0 28 -4 31 -10z
m-113 -1482 c-29 -11 -39 -9 -44 10 -5 16 -2 17 28 8 27 -9 30 -12 16 -18z
m-12 -59 c0 -6 9 -9 20 -6 11 3 20 2 20 -3 0 -8 -35 -20 -62 -20 -11 0 -18 8
-18 20 0 13 7 20 20 20 11 0 20 -5 20 -11z m103 -49 c-3 -11 -7 -20 -9 -20 -2
0 -4 9 -4 20 0 11 4 20 9 20 5 0 7 -9 4 -20z m-64 -36 c8 -8 -7 -15 -43 -21
-32 -5 -36 -3 -36 17 0 20 3 22 38 15 20 -4 39 -9 41 -11z m74 -21 c-7 -2 -13
-13 -13 -24 0 -10 -4 -19 -9 -19 -12 0 -9 33 4 42 6 4 15 7 20 7 6 0 4 -3 -2
-6z m-53 -23 c0 -5 -4 -10 -10 -10 -5 0 -10 5 -10 10 0 6 5 10 10 10 6 0 10
-4 10 -10z m-32 -27 c12 -3 22 -10 22 -15 0 -6 -7 -8 -15 -5 -8 4 -17 2 -20
-3 -4 -6 -17 -10 -31 -10 -19 0 -24 5 -24 26 0 23 3 25 23 19 12 -3 32 -9 45
-12z m72 -43 c0 -18 -6 -20 -40 -18 -23 2 -40 8 -40 15 0 7 6 10 14 7 8 -3 17
-1 21 5 12 20 45 13 45 -9z m-85 -30 c3 -5 12 -7 20 -3 8 3 15 1 15 -5 0 -9
-45 -22 -76 -22 -8 0 -14 9 -14 20 0 15 7 20 24 20 14 0 27 -4 31 -10z m92
-46 c5 -14 -45 -25 -53 -12 -3 5 -12 7 -20 4 -8 -3 -14 -1 -14 4 0 19 81 23
87 4z m-84 -26 c37 -17 34 -23 -13 -26 -34 -2 -40 0 -40 18 0 23 15 25 53 8z
m89 -43 c-2 -14 -8 -22 -13 -20 -4 3 -24 6 -44 7 -49 2 -44 14 13 26 26 5 48
10 48 11 1 0 -1 -10 -4 -24z m-97 -26 c4 -6 13 -8 21 -5 8 3 14 0 14 -7 0 -7
-17 -13 -40 -15 -34 -2 -40 0 -40 18 0 22 33 29 45 9z m108 -36 c-7 -2 -13
-12 -13 -20 0 -12 -7 -14 -27 -9 -16 4 -34 7 -40 8 -19 2 -16 16 5 21 24 6 90
7 75 0z m-108 -34 c4 -6 13 -8 21 -5 7 3 16 1 19 -3 2 -5 -9 -11 -26 -15 -50
-10 -59 -7 -59 14 0 22 34 29 45 9z m110 -29 c-3 -5 0 -10 7 -11 10 0 10 -2 0
-6 -6 -2 -10 -9 -6 -14 6 -10 -20 -12 -65 -3 -44 9 -38 20 17 32 26 5 48 10
50 11 2 0 0 -3 -3 -9z m-110 -40 c3 -5 15 -10 26 -10 35 0 20 -15 -18 -18 -33
-2 -52 9 -53 31 0 11 38 9 45 -3z m108 -50 c-3 -11 -11 -20 -18 -20 -30 0 -75
13 -75 22 0 6 7 8 15 5 8 -4 17 -2 20 3 4 6 19 10 35 10 23 0 27 -3 23 -20z
m-94 -26 c17 -4 31 -10 31 -15 0 -5 -6 -6 -14 -3 -8 3 -17 1 -21 -5 -11 -20
-45 -13 -45 9 0 22 3 23 49 14z m91 -44 c0 -18 -6 -20 -40 -18 -23 2 -40 8
-40 15 0 7 6 10 14 7 8 -3 17 -1 21 5 12 20 45 13 45 -9z m-55 -38 c11 -7 -27
-19 -62 -21 -17 -1 -23 5 -23 20 0 19 4 21 37 14 21 -4 42 -10 48 -13z m67
-37 c-3 -18 -11 -25 -28 -25 -12 0 -25 4 -29 10 -3 5 -12 7 -20 3 -8 -3 -15
-1 -15 5 0 5 21 14 48 20 26 5 48 10 48 11 1 0 -1 -10 -4 -24z m-64 -43 c2 -7
-3 -10 -12 -6 -8 3 -21 2 -28 -2 -24 -15 -48 -11 -48 8 0 16 6 18 42 15 23 -2
44 -9 46 -15z m62 -37 c0 -18 -5 -25 -19 -25 -11 0 -23 5 -26 10 -4 6 -12 9
-19 8 -6 -2 -12 2 -13 7 -1 6 4 9 12 7 7 -1 16 2 20 8 3 5 15 10 26 10 14 0
19 -7 19 -25z m-95 -25 c3 -5 12 -7 20 -3 9 3 15 -1 15 -8 0 -9 -14 -15 -40
-17 -34 -2 -40 0 -40 18 0 21 33 29 45 10z m1472 -83 c2 -51 0 -59 -20 -66
-11 -4 -29 -6 -39 -3 -21 5 -43 30 -34 39 3 4 12 -1 19 -11 18 -24 62 -18 62
9 0 12 -9 21 -25 25 -25 6 -25 6 -2 12 25 7 30 36 7 45 -9 3 -25 -3 -35 -12
-16 -15 -20 -15 -20 -3 0 23 12 29 50 26 l35 -3 2 -58z m-1367 43 c11 -7 11
-10 2 -10 -7 0 -10 -4 -7 -10 3 -6 -4 -10 -17 -10 -33 0 -68 11 -68 21 0 5 6
6 14 3 8 -3 17 -1 21 5 8 14 35 14 55 1z m1751 0 c10 -6 19 -18 19 -27 0 -13
-5 -12 -25 7 -21 20 -29 22 -49 12 -31 -14 -42 -57 -21 -88 18 -27 47 -31 69
-9 21 21 29 19 16 -5 -13 -25 -66 -27 -92 -3 -24 22 -24 77 2 103 22 22 51 26
81 10z m-545 -27 c13 -17 15 -17 25 0 5 9 14 17 20 17 5 0 2 -11 -7 -25 -15
-23 -15 -27 0 -50 9 -14 13 -25 9 -25 -5 0 -14 9 -21 21 l-13 21 -27 -23 -26
-24 22 31 c19 28 20 33 7 44 -15 13 -20 30 -9 30 4 0 13 -8 20 -17z m888 -15
c3 -13 1 -27 -4 -32 -14 -14 -12 -63 3 -69 7 -4 6 -6 -4 -6 -13 -1 -18 10 -21
47 -5 51 0 82 12 82 4 0 10 -10 14 -22z m46 12 c0 -5 -2 -10 -4 -10 -3 0 -8 5
-11 10 -3 6 -1 10 4 10 6 0 11 -4 11 -10z m-2211 -16 c8 -8 -7 -15 -43 -21
-32 -5 -36 -3 -36 17 0 20 3 22 38 15 20 -4 39 -9 41 -11z m1904 -5 c-15 -5
-23 -17 -23 -31 0 -13 -5 -30 -10 -38 -7 -11 -10 -2 -10 31 0 45 1 46 33 47
28 0 29 -1 10 -9z m95 -1 c7 -7 12 -21 12 -31 0 -17 -5 -19 -35 -14 -27 4 -35
2 -35 -9 0 -21 29 -29 52 -15 16 10 19 10 16 -1 -6 -17 -55 -23 -74 -7 -30 24
-9 89 29 89 13 0 28 -5 35 -12z m492 -48 c7 -33 15 -58 19 -56 3 2 15 27 26
55 11 28 23 51 28 51 5 0 7 -6 4 -12 -39 -93 -52 -118 -60 -115 -9 3 -24 42
-41 111 -3 14 -2 26 2 26 5 0 15 -27 22 -60z m-380 0 l5 -46 -37 -1 c-44 -2
-67 19 -48 42 7 8 23 15 36 15 16 0 24 6 24 16 0 13 -7 15 -30 10 -20 -4 -29
-2 -25 5 4 5 21 9 38 7 30 -3 32 -6 37 -48z m-2035 19 c-6 -31 -9 -32 -54 -24
-54 9 -52 21 7 33 26 5 48 10 49 11 1 0 0 -9 -2 -20z m2125 -24 c0 -25 -3 -45
-8 -45 -4 0 -6 20 -4 45 2 25 6 45 8 45 2 0 4 -20 4 -45z m46 -3 l11 -37 16
39 c23 52 33 40 11 -13 -24 -60 -37 -53 -58 34 -10 41 7 22 20 -23z m142 26
c7 -7 12 -20 12 -31 0 -16 -5 -18 -40 -12 -42 7 -52 -3 -24 -26 13 -10 19 -10
36 0 16 10 19 10 16 -1 -6 -18 -46 -22 -64 -8 -17 15 -19 61 -2 78 7 7 21 12
33 12 12 0 26 -5 33 -12z m203 -79 l-9 -34 -1 37 c-1 20 2 45 6 55 7 16 8 16
11 -3 2 -12 -1 -37 -7 -55z m87 59 c7 -7 12 -16 12 -22 0 -6 -5 -5 -12 2 -7 7
-18 12 -25 12 -22 0 -14 -20 12 -30 30 -11 33 -46 5 -55 -21 -7 -60 10 -60 25
0 15 11 12 25 -7 7 -9 19 -14 29 -10 23 9 20 26 -8 37 -32 12 -41 28 -26 45
15 18 32 19 48 3z m43 -69 l-9 -34 -1 46 c-1 25 2 49 7 53 12 12 14 -29 3 -65z
m-2712 46 c8 -9 -4 -14 -47 -21 -39 -6 -42 -5 -42 16 0 21 3 22 42 16 23 -4
44 -9 47 -11z m2819 3 c7 -7 12 -24 12 -38 0 -31 -17 -50 -45 -50 -28 0 -45
19 -45 50 0 31 17 50 45 50 12 0 26 -5 33 -12z m105 -7 c10 -2 9 -91 -2 -91
-5 0 -7 18 -4 40 4 31 2 41 -11 46 -24 9 -44 -13 -49 -54 -3 -30 -4 -27 -5 15
l-2 51 33 -2 c17 -2 35 -4 40 -5z m-2863 -41 c0 -21 -16 -25 -57 -14 -42 11
-22 30 35 33 16 1 22 -5 22 -19z m-95 -31 c4 -6 13 -8 21 -5 8 3 14 1 14 -4 0
-6 -4 -10 -9 -10 -5 0 -23 -3 -40 -6 -27 -6 -31 -4 -31 15 0 23 33 30 45 10z
m95 -49 c0 -12 -7 -20 -17 -20 -30 0 -63 12 -63 22 0 5 4 7 8 4 4 -2 14 -1 22
5 26 16 50 10 50 -11z m-70 -290 c23 -7 23 -8 3 -9 -12 -1 -24 -5 -28 -11 -8
-13 -35 -1 -35 16 0 15 21 17 60 4z m-2 -246 c12 -4 22 -10 22 -15 0 -5 -6 -6
-14 -3 -8 3 -17 1 -21 -5 -10 -18 -32 -12 -38 9 -5 21 8 25 51 14z m12 -84
c14 -4 22 -9 18 -10 -5 -1 -11 -3 -15 -5 -5 -1 -16 -5 -25 -9 -23 -11 -48 -1
-48 19 0 16 28 18 70 5z m67 -52 c-3 -7 -5 -2 -5 12 0 14 2 19 5 13 2 -7 2
-19 0 -25z m-78 -24 c29 -6 46 -27 19 -23 -7 1 -21 -1 -30 -5 -23 -11 -48 -1
-48 19 0 16 11 18 59 9z m91 -44 c0 -11 -4 -20 -10 -20 -5 0 -10 9 -10 20 0
11 5 20 10 20 6 0 10 -9 10 -20z m-95 -31 c4 -6 13 -8 21 -5 8 3 14 2 14 -3 0
-8 -47 -21 -76 -21 -8 0 -14 9 -14 20 0 15 7 20 24 20 14 0 28 -5 31 -11z m97
-44 c-3 -19 -9 -24 -26 -21 -11 3 -31 5 -43 5 -40 2 -25 18 25 29 26 5 48 10
48 11 1 0 -1 -10 -4 -24z m-93 -31 c17 -4 31 -11 31 -16 0 -6 -7 -8 -15 -5 -8
4 -17 2 -20 -3 -4 -6 -17 -10 -31 -10 -17 0 -24 5 -24 20 0 21 9 24 59 14z
m91 -44 c0 -21 -9 -24 -59 -14 -17 4 -28 10 -26 15 3 4 12 6 19 3 8 -3 17 -1
21 5 11 20 45 13 45 -9z m-95 -30 c3 -5 12 -7 20 -3 8 3 15 1 15 -5 0 -5 -14
-12 -31 -16 -50 -10 -58 -8 -52 14 5 21 37 27 48 10z m95 -50 c0 -22 -3 -23
-49 -14 -50 10 -35 30 27 33 16 1 22 -5 22 -19z m-91 -26 c17 -4 31 -10 31
-15 0 -5 -6 -6 -14 -3 -8 3 -17 1 -21 -5 -11 -18 -42 -12 -48 9 -6 22 2 24 52
14z m98 -49 c-12 -25 -41 -33 -52 -14 -4 6 -13 8 -21 5 -8 -3 -14 -1 -14 4 0
5 17 12 38 15 31 6 51 10 59 14 0 1 -4 -10 -10 -24z m-99 -42 c2 -8 -6 -13
-22 -13 -17 0 -26 5 -26 16 0 19 41 16 48 -3z m105 -30 c-7 -2 -13 -11 -13
-19 0 -16 -5 -17 -49 -8 -56 12 -30 30 44 32 17 0 24 -2 18 -5z"/>
<path d="M8265 4530 c-9 -14 -6 -17 25 -22 17 -2 25 2 25 12 0 18 -40 26 -50
10z"/>
<path d="M8364 4479 c-3 -6 -2 -15 3 -20 13 -13 43 -1 43 17 0 16 -36 19 -46
3z"/>
<path d="M8650 4495 c-11 -13 -7 -15 25 -15 32 0 36 2 25 15 -7 8 -18 15 -25
15 -7 0 -18 -7 -25 -15z"/>
<path d="M9092 4458 c-25 -25 -6 -68 30 -68 22 0 35 45 18 65 -15 18 -32 19
-48 3z"/>
</g>
</svg>
